<svg xmlns="http://www.w3.org/2000/svg" viewBox="0 0 608 608" width="608" height="608" role="img" aria-label="On the air: SWR, power and the microphone"><title>On the air: SWR, power and the microphone</title><defs><clipPath id="aether-06-glass"><circle cx="180" cy="180" r="180"/></clipPath><linearGradient id="aether-06-alu" x1="0.15" y1="0.05" x2="0.85" y2="0.95"><stop offset="0" stop-color="#4F8BF5"/><stop offset="0.45" stop-color="#2A5FDB"/><stop offset="1" stop-color="#16389A"/></linearGradient><linearGradient id="aether-06-chamfer" x1="0.2" y1="0" x2="0.8" y2="1"><stop offset="0" stop-color="#9CC0FF"/><stop offset="1" stop-color="#1B3F9E"/></linearGradient><linearGradient id="aether-06-gloss" x1="0" y1="0" x2="0.6" y2="0.7"><stop offset="0" stop-color="#FFFFFF" stop-opacity="0.10"/><stop offset="0.5" stop-color="#FFFFFF" stop-opacity="0"/></linearGradient><linearGradient id="aether-06-upd" x1="0" y1="0" x2="0" y2="1"><stop offset="0" stop-color="#262015"/><stop offset="1" stop-color="#0C0E13"/></linearGradient><marker id="aether-06-arrow" viewBox="0 0 10 10" refX="7" refY="5" markerWidth="7" markerHeight="7" orient="auto-start-reverse"><path d="M0,1 L10,5 L0,9 z" fill="#E0902A"/></marker></defs><circle cx="303.8" cy="303.8" r="259.8" fill="url(#aether-06-alu)"/><circle cx="303.8" cy="303.8" r="258.8" fill="none" stroke="#0E2A74" stroke-width="2"/><circle cx="303.8" cy="303.8" r="219.0" fill="none" stroke="url(#aether-06-chamfer)" stroke-width="3" opacity="0.8"/><circle cx="303.8" cy="303.8" r="216.5" fill="#060709"/><g transform="translate(123.8,123.8)"><g clip-path="url(#aether-06-glass)"><rect x="0" y="0" width="360" height="360" fill="#3A2A0E"/><circle cx="180" cy="180" r="178" fill="none" stroke="#E01010" stroke-width="4"/><path d="M18.49,208.48 A164.00,164.00 0 0 1 171.42,16.22" fill="none" stroke="#1A2330" stroke-width="12"/><path d="M18.49,208.48 A164.00,164.00 0 0 1 51.65,77.91" fill="none" stroke="#4DD87A" stroke-width="12"></path><path d="M51.65,77.91 A164.00,164.00 0 0 1 104.91,34.20" fill="none" stroke="#FFB84D" stroke-width="12"></path><path d="M104.91,34.20 A164.00,164.00 0 0 1 171.42,16.22" fill="none" stroke="#FF4D4D" stroke-width="12"></path><path d="M171.42,16.22 A164.00,164.00 0 0 0 18.49,208.48" fill="none" stroke="#1A2330" stroke-width="12.5" stroke-dasharray="236.00 287.65"/><line x1="27.83" y1="141.35" x2="14.26" y2="137.91" stroke="#0F0F1A" stroke-width="3"/><line x1="57.13" y1="82.27" x2="46.17" y2="73.55" stroke="#0F0F1A" stroke-width="3"/><line x1="108.11" y1="40.42" x2="101.70" y2="27.98" stroke="#0F0F1A" stroke-width="3"/><line x1="37.20" y1="205.18" x2="27.35" y2="206.92" stroke="#506070" stroke-width="3" stroke-linecap="round"/><text x="53.9" y="207.2" font-size="14" fill="#506070" font-family="DejaVu Sans,Verdana,sans-serif" font-weight="400" text-anchor="middle">1</text><line x1="35.58" y1="143.32" x2="29.77" y2="141.85" stroke="#506070" stroke-width="2" stroke-linecap="round"/><line x1="66.52" y1="89.74" x2="58.70" y2="83.51" stroke="#FFB84D" stroke-width="3" stroke-linecap="round"/><text x="79.8" y="105.3" font-size="14" fill="#FFB84D" font-family="DejaVu Sans,Verdana,sans-serif" font-weight="400" text-anchor="middle">2</text><line x1="111.78" y1="47.54" x2="109.03" y2="42.20" stroke="#FF4D4D" stroke-width="2" stroke-linecap="round"/><line x1="172.41" y1="35.20" x2="171.89" y2="25.21" stroke="#FF4D4D" stroke-width="3" stroke-linecap="round"/><text x="173.3" y="57.2" font-size="14" fill="#FF4D4D" font-family="DejaVu Sans,Verdana,sans-serif" font-weight="400" text-anchor="middle">3</text><path d="M188.58,16.22 A164.00,164.00 0 0 1 341.51,208.48" fill="none" stroke="#1A2330" stroke-width="12"/><path d="M188.58,16.22 A164.00,164.00 0 0 1 341.51,208.48" fill="none" stroke="#E9B61D" stroke-width="12"></path><path d="M341.51,208.48 A164.00,164.00 0 0 0 188.58,16.22" fill="none" stroke="#1A2330" stroke-width="12.5" stroke-dasharray="138.82 287.65"/><line x1="214.52" y1="26.84" x2="217.59" y2="13.18" stroke="#0F0F1A" stroke-width="3"/><line x1="212.10" y1="37.57" x2="214.08" y2="28.79" stroke="#506070" stroke-width="2" stroke-linecap="round"/><text x="208.1" y="60.1" font-size="14" fill="#506070" font-family="DejaVu Sans,Verdana,sans-serif" font-weight="400" text-anchor="middle">10</text><line x1="302.87" y1="82.27" x2="313.83" y2="73.55" stroke="#0F0F1A" stroke-width="3"/><line x1="294.26" y1="89.11" x2="301.30" y2="83.51" stroke="#506070" stroke-width="2" stroke-linecap="round"/><text x="280.2" y="105.3" font-size="14" fill="#506070" font-family="DejaVu Sans,Verdana,sans-serif" font-weight="400" text-anchor="middle">50</text><line x1="323.78" y1="205.35" x2="332.65" y2="206.92" stroke="#506070" stroke-width="2" stroke-linecap="round"/><text x="306.1" y="207.2" font-size="14" fill="#506070" font-family="DejaVu Sans,Verdana,sans-serif" font-weight="400" text-anchor="middle">100</text><path d="M323.29,205.27 A145.50,145.50 0 0 0 276.98,71.53" fill="none" stroke="#4DD87A" stroke-width="5"></path><path d="M276.98,71.53 A145.50,145.50 0 0 0 235.45,45.48" fill="none" stroke="#FFB84D" stroke-width="5"></path><path d="M235.45,45.48 A145.50,145.50 0 0 0 187.61,34.70" fill="none" stroke="#FF4D4D" stroke-width="5"></path><path d="M187.61,34.70 A145.50,145.50 0 0 1 323.29,205.27" fill="none" stroke="#1A2330" stroke-width="5.5" stroke-dasharray="118.24 256.33"/><text x="180.0" y="83.0" font-size="20" fill="#C8D8E8" font-family="DejaVu Sans,Verdana,sans-serif" font-weight="700" text-anchor="middle">SWR 1.3</text><text x="180.0" y="103.0" font-size="14" fill="#F0C890" font-family="DejaVu Sans,Verdana,sans-serif" font-weight="400" text-anchor="middle">PWR 50W / 100W</text><text x="104.0" y="129.0" font-size="20" fill="#00B4D8" font-family="DejaVu Sans,Verdana,sans-serif" font-weight="400" text-anchor="middle">40m</text><text x="180.0" y="129.0" font-size="20" fill="#C8D8E8" font-family="DejaVu Sans,Verdana,sans-serif" font-weight="400" text-anchor="middle">LSB</text><text x="256.0" y="129.0" font-size="20" fill="#8EA8C0" font-family="DejaVu Sans,Verdana,sans-serif" font-weight="400" text-anchor="middle">2800</text><text x="126.0" y="187.0" font-size="46" fill="#F0C890" font-family="Hack,DejaVu Sans Mono,Menlo,Consolas,monospace" font-weight="400" text-anchor="middle" textLength="28" lengthAdjust="spacingAndGlyphs">7</text><text x="146.0" y="187.0" font-size="46" fill="#506070" font-family="Hack,DejaVu Sans Mono,Menlo,Consolas,monospace" font-weight="400" text-anchor="middle" textLength="28" lengthAdjust="spacingAndGlyphs">.</text><text x="166.0" y="187.0" font-size="46" fill="#F0C890" font-family="Hack,DejaVu Sans Mono,Menlo,Consolas,monospace" font-weight="400" text-anchor="middle" textLength="28" lengthAdjust="spacingAndGlyphs">1</text><text x="194.0" y="187.0" font-size="46" fill="#F0C890" font-family="Hack,DejaVu Sans Mono,Menlo,Consolas,monospace" font-weight="400" text-anchor="middle" textLength="28" lengthAdjust="spacingAndGlyphs">6</text><text x="222.0" y="187.0" font-size="46" fill="#F0C890" font-family="Hack,DejaVu Sans Mono,Menlo,Consolas,monospace" font-weight="400" text-anchor="middle" textLength="28" lengthAdjust="spacingAndGlyphs">1</text><text x="242.0" y="187.0" font-size="46" fill="#506070" font-family="Hack,DejaVu Sans Mono,Menlo,Consolas,monospace" font-weight="400" text-anchor="middle" textLength="28" lengthAdjust="spacingAndGlyphs">.</text><text x="262.0" y="187.0" font-size="46" fill="#F0C890" font-family="Hack,DejaVu Sans Mono,Menlo,Consolas,monospace" font-weight="400" text-anchor="middle" textLength="28" lengthAdjust="spacingAndGlyphs">7</text><text x="290.0" y="187.0" font-size="46" fill="#F0C890" font-family="Hack,DejaVu Sans Mono,Menlo,Consolas,monospace" font-weight="400" text-anchor="middle" textLength="28" lengthAdjust="spacingAndGlyphs">3</text><rect x="211" y="203" width="22" height="3" rx="1" fill="#00B4D8"/><rect x="0" y="248" width="360" height="112" fill="#E01010"/><line x1="0" y1="249" x2="360" y2="249" stroke="#00B4D8" stroke-width="2"/><text x="180.0" y="287.0" font-size="28" fill="#FFFFFF" font-family="DejaVu Sans,Verdana,sans-serif" font-weight="500" text-anchor="middle" xml:space="preserve">TX</text></g></g><circle cx="303.8" cy="303.8" r="216.5" fill="url(#aether-06-gloss)"/></svg>