<svg xmlns="http://www.w3.org/2000/svg" viewBox="0 0 608 608" width="608" height="608" role="img" aria-label="An SSTV picture: the knob turns to the next"><title>An SSTV picture: the knob turns to the next</title><defs><clipPath id="uber-12-glass"><circle cx="180" cy="180" r="180"/></clipPath><linearGradient id="uber-12-alu" x1="0.15" y1="0.05" x2="0.85" y2="0.95"><stop offset="0" stop-color="#4F8BF5"/><stop offset="0.45" stop-color="#2A5FDB"/><stop offset="1" stop-color="#16389A"/></linearGradient><linearGradient id="uber-12-chamfer" x1="0.2" y1="0" x2="0.8" y2="1"><stop offset="0" stop-color="#9CC0FF"/><stop offset="1" stop-color="#1B3F9E"/></linearGradient><linearGradient id="uber-12-gloss" x1="0" y1="0" x2="0.6" y2="0.7"><stop offset="0" stop-color="#FFFFFF" stop-opacity="0.10"/><stop offset="0.5" stop-color="#FFFFFF" stop-opacity="0"/></linearGradient><linearGradient id="uber-12-upd" x1="0" y1="0" x2="0" y2="1"><stop offset="0" stop-color="#262015"/><stop offset="1" stop-color="#0C0E13"/></linearGradient><marker id="uber-12-arrow" viewBox="0 0 10 10" refX="7" refY="5" markerWidth="7" markerHeight="7" orient="auto-start-reverse"><path d="M0,1 L10,5 L0,9 z" fill="#E0902A"/></marker></defs><circle cx="303.8" cy="303.8" r="259.8" fill="url(#uber-12-alu)"/><circle cx="303.8" cy="303.8" r="258.8" fill="none" stroke="#0E2A74" stroke-width="2"/><circle cx="303.8" cy="303.8" r="219.0" fill="none" stroke="url(#uber-12-chamfer)" stroke-width="3" opacity="0.8"/><circle cx="303.8" cy="303.8" r="216.5" fill="#060709"/><g transform="translate(123.8,123.8)"><g clip-path="url(#uber-12-glass)"><rect x="0" y="0" width="360" height="360" fill="#090C12"/><rect x="50.0" y="76" width="33.0" height="129.0" fill="#C0C0C0"/><rect x="82.5" y="76" width="33.0" height="129.0" fill="#C0C000"/><rect x="115.0" y="76" width="33.0" height="129.0" fill="#00C0C0"/><rect x="147.5" y="76" width="33.0" height="129.0" fill="#00C000"/><rect x="180.0" y="76" width="33.0" height="129.0" fill="#C000C0"/><rect x="212.5" y="76" width="33.0" height="129.0" fill="#C00000"/><rect x="245.0" y="76" width="33.0" height="129.0" fill="#0000C0"/><rect x="277.5" y="76" width="33.0" height="129.0" fill="#101010"/><rect x="50.0" y="205.0" width="26.5" height="79.0" fill="#141414"/><rect x="76.0" y="205.0" width="26.5" height="79.0" fill="#2B2B2B"/><rect x="102.0" y="205.0" width="26.5" height="79.0" fill="#424242"/><rect x="128.0" y="205.0" width="26.5" height="79.0" fill="#595959"/><rect x="154.0" y="205.0" width="26.5" height="79.0" fill="#707070"/><rect x="180.0" y="205.0" width="26.5" height="79.0" fill="#878787"/><rect x="206.0" y="205.0" width="26.5" height="79.0" fill="#9E9E9E"/><rect x="232.0" y="205.0" width="26.5" height="79.0" fill="#B5B5B5"/><rect x="258.0" y="205.0" width="26.5" height="79.0" fill="#CCCCCC"/><rect x="284.0" y="205.0" width="26.5" height="79.0" fill="#E3E3E3"/><text x="180.0" y="254.9" font-size="28" fill="#FFFFFF" font-family="DejaVu Sans,Verdana,sans-serif" font-weight="700" text-anchor="middle">CQ SSTV</text><text x="180.0" y="59.0" font-size="20" fill="#4DB4FF" font-family="DejaVu Sans,Verdana,sans-serif" font-weight="400" text-anchor="middle" xml:space="preserve">M2  1 / 15</text><text x="180.0" y="309.0" font-size="14" fill="#8D99AD" font-family="DejaVu Sans,Verdana,sans-serif" font-weight="400" text-anchor="middle" xml:space="preserve">14.230 USB  19:19Z  5 dB</text></g></g><circle cx="303.8" cy="303.8" r="216.5" fill="url(#uber-12-gloss)"/><path d="M542.7,165.9 A275.8,275.8 0 0 1 542.7,441.8" fill="none" stroke="#E0902A" stroke-width="3.5" stroke-linecap="round" marker-start="url(#uber-12-arrow)" marker-end="url(#uber-12-arrow)"/><text x="303.8" y="593.7" font-size="16" fill="#E0902A" font-family="DejaVu Sans,Verdana,sans-serif" font-weight="700" text-anchor="middle">turn: newest first  ·  any tap: back to the dial</text></svg>