<svg xmlns="http://www.w3.org/2000/svg" viewBox="-216.5 -216.5 433.1 433.1" width="433" height="433"><defs><clipPath id="panel"><circle cx="180" cy="180" r="180"/></clipPath><linearGradient id="gloss" x1="0" y1="0" x2="0" y2="1"><stop offset="0" stop-color="#FFFFFF" stop-opacity="0.10"/><stop offset="0.45" stop-color="#FFFFFF" stop-opacity="0.02"/><stop offset="0.46" stop-color="#FFFFFF" stop-opacity="0"/></linearGradient></defs><circle r="216.5" fill="#07080B"/><g transform="translate(-180,-180)"><g clip-path="url(#panel)"><circle cx="180" cy="180" r="180" fill="#08090C"/><path d="M18.49,208.48 A164.00,164.00 0 0 1 171.42,16.22" fill="none" stroke="#1B1F29" stroke-width="12"/><path d="M18.49,208.48 A164.00,164.00 0 0 1 18.20,153.21" fill="none" stroke="#1B5E2E" stroke-width="12"></path><path d="M18.20,153.21 A164.00,164.00 0 0 1 36.29,100.99" fill="none" stroke="#237A3B" stroke-width="12"></path><path d="M36.29,100.99 A164.00,164.00 0 0 1 70.69,57.74" fill="none" stroke="#2EA043" stroke-width="12"></path><path d="M70.69,57.74 A164.00,164.00 0 0 1 85.15,46.21" fill="none" stroke="#35B35A" stroke-width="12"></path><line x1="25.11" y1="154.36" x2="11.30" y2="152.07" stroke="#08090C" stroke-width="3"/><line x1="42.42" y1="104.36" x2="30.15" y2="97.62" stroke="#08090C" stroke-width="3"/><line x1="75.35" y1="62.96" x2="66.02" y2="52.52" stroke="#08090C" stroke-width="3"/><line x1="96.57" y1="47.00" x2="89.13" y2="35.14" stroke="#08090C" stroke-width="3"/><line x1="120.17" y1="34.85" x2="114.84" y2="21.90" stroke="#08090C" stroke-width="3"/><line x1="145.48" y1="26.84" x2="142.41" y2="13.18" stroke="#08090C" stroke-width="3"/><line x1="158.56" y1="24.47" x2="156.64" y2="10.60" stroke="#08090C" stroke-width="3"/><line x1="80.69" y1="68.92" x2="76.69" y2="64.45" stroke="#94A3B8" stroke-width="2" stroke-linecap="round"/><line x1="125.13" y1="46.87" x2="120.93" y2="36.70" stroke="#E2E8F0" stroke-width="3" stroke-linecap="round"/><line x1="147.24" y1="34.65" x2="145.92" y2="28.79" stroke="#D29922" stroke-width="2" stroke-linecap="round"/><line x1="172.36" y1="34.20" x2="171.89" y2="25.21" stroke="#D29922" stroke-width="2" stroke-linecap="round"/><path d="M105.50,33.90 A164.00,164.00 0 0 1 113.25,30.20" fill="none" stroke="#9DBD3B" stroke-width="12"></path><path d="M188.58,16.22 A164.00,164.00 0 0 1 341.51,208.48" fill="none" stroke="#1B1F29" stroke-width="12"/><path d="M341.80,153.21 A164.00,164.00 0 0 1 341.51,208.48" fill="none" stroke="#1B5E2E" stroke-width="12"></path><path d="M323.71,100.99 A164.00,164.00 0 0 1 341.80,153.21" fill="none" stroke="#237A3B" stroke-width="12"></path><path d="M311.18,81.57 A164.00,164.00 0 0 1 323.71,100.99" fill="none" stroke="#2EA043" stroke-width="12"></path><line x1="334.89" y1="154.36" x2="348.70" y2="152.07" stroke="#08090C" stroke-width="3"/><line x1="317.58" y1="104.36" x2="329.85" y2="97.62" stroke="#08090C" stroke-width="3"/><line x1="284.65" y1="62.96" x2="293.98" y2="52.52" stroke="#08090C" stroke-width="3"/><line x1="263.43" y1="47.00" x2="270.87" y2="35.14" stroke="#08090C" stroke-width="3"/><line x1="239.83" y1="34.85" x2="245.16" y2="21.90" stroke="#08090C" stroke-width="3"/><line x1="214.52" y1="26.84" x2="217.59" y2="13.18" stroke="#08090C" stroke-width="3"/><line x1="201.44" y1="24.47" x2="203.36" y2="10.60" stroke="#08090C" stroke-width="3"/><line x1="279.31" y1="68.92" x2="283.31" y2="64.45" stroke="#94A3B8" stroke-width="2" stroke-linecap="round"/><line x1="234.87" y1="46.87" x2="239.07" y2="36.70" stroke="#E2E8F0" stroke-width="3" stroke-linecap="round"/><line x1="212.76" y1="34.65" x2="214.08" y2="28.79" stroke="#D29922" stroke-width="2" stroke-linecap="round"/><line x1="187.64" y1="34.20" x2="188.11" y2="25.21" stroke="#D29922" stroke-width="2" stroke-linecap="round"/><path d="M285.82,54.71 A164.00,164.00 0 0 1 292.23,60.42" fill="none" stroke="#35B35A" stroke-width="12"></path><text x="180.0" y="83.0" font-size="20" fill="#FFFFFF" font-family="DejaVu Sans,Verdana,sans-serif" font-weight="700" text-anchor="middle">02:47</text><text x="180.0" y="103.0" font-size="14" fill="#2EA043" font-family="DejaVu Sans,Verdana,sans-serif" font-weight="400" text-anchor="middle">in call</text><text x="180.0" y="129.0" font-size="20" fill="#E5A823" font-family="DejaVu Sans,Verdana,sans-serif" font-weight="400" text-anchor="middle">+447700900123</text><g transform="translate(276.0,109.0) scale(2)"><g transform="translate(0.0,0.0)" fill="#94A3B8"><rect x="2.5" y="0" width="5" height="8" rx="2.5"/><path d="M0.8,5.5 a4.2,4.2 0 0 0 8.4,0" fill="none" stroke="#94A3B8" stroke-width="1.5" stroke-linecap="round"/><rect x="4.3" y="9.6" width="1.4" height="2.4"/><rect x="2.2" y="11.6" width="5.6" height="1.4" rx="0.7"/></g></g><text x="180.0" y="170.0" font-size="28" fill="#FFFFFF" font-family="DejaVu Sans,Verdana,sans-serif" font-weight="400" text-anchor="middle">Mum</text><text x="180.0" y="203.0" font-size="20" fill="#E2E8F0" font-family="DejaVu Sans,Verdana,sans-serif" font-weight="400" text-anchor="middle">+447700900461</text><text x="124.0" y="227.0" font-size="20" fill="#2EA043" font-family="DejaVu Sans,Verdana,sans-serif" font-weight="400" text-anchor="middle">connected</text><g transform="translate(206.1,216.0)" fill="#E2E8F0"><path d="M0,3.5 h3 l4,-3.5 v11 l-4,-3.5 h-3 z"/><path d="M9,3 a3.2,3.2 0 0 1 0,5" fill="none" stroke="#E2E8F0" stroke-width="1.6" stroke-linecap="round"/></g><text x="221.1" y="227.0" font-size="14" fill="#E2E8F0" font-family="DejaVu Sans,Verdana,sans-serif" font-weight="400" text-anchor="start">40</text><g transform="translate(263.9,215.0)" fill="#E2E8F0"><rect x="2.5" y="0" width="5" height="8" rx="2.5"/><path d="M0.8,5.5 a4.2,4.2 0 0 0 8.4,0" fill="none" stroke="#E2E8F0" stroke-width="1.5" stroke-linecap="round"/><rect x="4.3" y="9.6" width="1.4" height="2.4"/><rect x="2.2" y="11.6" width="5.6" height="1.4" rx="0.7"/></g><text x="278.9" y="227.0" font-size="14" fill="#E2E8F0" font-family="DejaVu Sans,Verdana,sans-serif" font-weight="400" text-anchor="start">100</text><rect x="0" y="248" width="360" height="112" fill="#D13B3B"/><line x1="0" y1="249" x2="360" y2="249" stroke="#E5A823" stroke-width="2"/><text x="180.0" y="287.0" font-size="28" fill="#FFFFFF" font-family="DejaVu Sans,Verdana,sans-serif" font-weight="500" text-anchor="middle" xml:space="preserve">HANG UP</text></g></g><circle r="216.5" fill="url(#gloss)"/></svg>